<svg width="16" height="16" viewBox="0 0 20 21" fill="none" xmlns="http://www.w3.org/2000/svg">
<path d="M9.98998 0.500015C8.67563 0.497759 7.37389 0.756273 6.16013 1.26059C4.94638 1.7649 3.84473 2.505 2.91898 3.43801C-0.979017 7.33601 -0.979017 13.681 2.91898 17.581C4.81398 19.476 7.32398 20.519 9.98998 20.519C12.656 20.519 15.167 19.476 17.061 17.581C20.96 13.682 20.96 7.33701 17.061 3.43801C16.1352 2.505 15.0336 1.7649 13.8198 1.26059C12.6061 0.756273 11.3043 0.497759 9.98998 0.500015ZM15.647 16.167C14.5986 17.2189 13.2767 17.9564 11.831 18.296L11.83 18.259C11.8283 17.4864 11.9711 16.7202 12.251 16L10.388 15.271C9.98702 16.3023 9.79924 17.4041 9.83598 18.51C7.76652 18.4745 5.79242 17.6337 4.33298 16.166C2.87081 14.7039 2.03454 12.7305 2.00098 10.663C2.08098 10.665 2.16098 10.668 2.24098 10.668C3.26314 10.6708 4.27672 10.4815 5.22898 10.11L4.49898 8.24801C3.7716 8.52854 2.99755 8.66835 2.21798 8.66001C2.55383 7.2179 3.28645 5.89851 4.33298 4.85101C5.41947 3.75944 6.79919 3.00636 8.30498 2.68301C8.29541 3.34836 8.17475 4.00743 7.94798 4.63301L9.82898 5.31401C10.1456 4.44858 10.3087 3.53453 10.311 2.61301C10.311 2.58001 10.307 2.54801 10.306 2.51501C12.319 2.59401 14.206 3.41101 15.648 4.85101C17.0713 6.2755 17.9018 8.18654 17.972 10.199C17.0221 10.188 16.078 10.3482 15.185 10.672L15.869 12.552C16.4893 12.3244 17.1433 12.2023 17.804 12.191C17.485 13.6972 16.7357 15.0784 15.647 16.167Z" fill="black"/>
<path d="M12.112 12.63C11.7682 12.9732 11.4582 13.3486 11.186 13.751L12.842 14.871C13.042 14.575 13.272 14.297 13.525 14.045C13.8801 13.6904 14.2754 13.3786 14.703 13.116L13.654 11.413C13.0942 11.757 12.5767 12.1655 12.112 12.63ZM6.45603 6.974C6.2023 7.2264 5.92542 7.4544 5.62903 7.655L6.74803 9.313C7.15034 9.04034 7.52601 8.73029 7.87003 8.387C8.33392 7.92175 8.74231 7.4043 9.08703 6.845L7.38403 5.797C7.12098 6.2237 6.80959 6.61865 6.45603 6.974Z" fill="black"/>
</svg>
