<svg width="42" height="42" viewBox="0 0 42 42" fill="none" xmlns="http://www.w3.org/2000/svg">
<path d="M6.26894 35.7319C10.2169 39.6798 15.446 41.8527 21.0002 41.8527C26.5544 41.8527 31.7856 39.6798 35.7314 35.7319C43.8544 27.609 43.8544 14.3923 35.7314 6.26732C31.7856 2.32148 26.5523 0.146484 21.0002 0.146484C15.4481 0.146484 10.2148 2.32148 6.26894 6.2694C-1.85397 14.3902 -1.85397 27.609 6.26894 35.7319ZM21.6439 4.34648C25.1234 4.47173 28.4738 5.69549 31.2148 7.84232L21.0002 18.0548L17.9585 15.0132C20.3773 11.9319 21.6919 8.12149 21.6439 4.34648ZM14.9794 12.034L10.7877 7.84232C12.7555 6.29984 15.0479 5.2242 17.4919 4.69648C17.4606 7.27148 16.5648 9.8569 14.9794 12.034ZM12.0127 14.959C9.89048 16.4088 7.37659 17.177 4.80645 17.1611C5.34778 14.8433 6.38396 12.67 7.84394 10.7902L12.0127 14.959ZM4.35645 21.3048C4.51686 21.309 4.67728 21.334 4.8377 21.334C8.50372 21.3457 12.0726 20.1558 14.9981 17.9465L18.0544 21.0007L7.84394 31.2111C5.64053 28.3731 4.41683 24.8972 4.35645 21.3048ZM29.9689 27.0236C32.1398 25.4444 34.7189 24.5486 37.2773 24.5111C36.7561 26.9516 35.6899 29.2427 34.1585 31.2132L29.9689 27.0236ZM31.2127 34.159C29.3341 35.6275 27.1601 36.6722 24.8398 37.2215C24.8163 34.6418 25.5849 32.1171 27.0419 29.9882L31.2127 34.159ZM20.7044 37.6715C17.1034 37.6142 13.6201 36.3806 10.7856 34.159L21.0002 23.9465L24.0481 26.9944C21.7502 30.0027 20.5919 33.7986 20.7044 37.6715ZM37.6294 20.359C33.8648 20.3215 30.0606 21.6298 26.9877 24.0423L23.946 21.0007L34.1564 10.7902C36.2876 13.5374 37.5024 16.8844 37.6294 20.359Z" fill="black"/>
</svg>
