<svg width="20" height="21" viewBox="0 0 20 21" fill="none" xmlns="http://www.w3.org/2000/svg">
<path d="M10 0.5C4.486 0.5 0 4.986 0 10.5C0 16.014 4.486 20.5 10 20.5C15.514 20.5 20 16.014 20 10.5C20 4.986 15.514 0.5 10 0.5ZM10 18.5C5.589 18.5 2 14.911 2 10.5C2 6.089 5.589 2.5 10 2.5C14.411 2.5 18 6.089 18 10.5C18 14.911 14.411 18.5 10 18.5Z" fill="black"/>
<path d="M5.5 10.5C6.32843 10.5 7 9.82843 7 9C7 8.17157 6.32843 7.5 5.5 7.5C4.67157 7.5 4 8.17157 4 9C4 9.82843 4.67157 10.5 5.5 10.5Z" fill="black"/>
<path d="M8.5 7.5C9.32843 7.5 10 6.82843 10 6C10 5.17157 9.32843 4.5 8.5 4.5C7.67157 4.5 7 5.17157 7 6C7 6.82843 7.67157 7.5 8.5 7.5Z" fill="black"/>
<path d="M9.5 11.5C10.3284 11.5 11 10.8284 11 10C11 9.17157 10.3284 8.5 9.5 8.5C8.67157 8.5 8 9.17157 8 10C8 10.8284 8.67157 11.5 9.5 11.5Z" fill="black"/>
</svg>
