<svg width="20" height="19" viewBox="0 0 20 19" fill="none" xmlns="http://www.w3.org/2000/svg">
<path d="M1.75998 18.5001C3.07261 18.7952 4.41463 18.9394 5.75998 18.9301C9.42747 19.0602 12.9974 17.7336 15.69 15.2401C21 9.87011 19.06 1.61011 19 1.26011C18.9588 1.07422 18.8654 0.903953 18.7308 0.769322C18.5961 0.634692 18.4259 0.541294 18.24 0.500107C16.927 0.207003 15.5852 0.0627598 14.24 0.070107C12.4171 0.000558022 10.5985 0.292581 8.88906 0.929334C7.17961 1.56609 5.61314 2.53497 4.27998 3.78011C-1.06002 9.13011 0.939979 17.3901 0.999979 17.7401C1.04117 17.926 1.13456 18.0963 1.26919 18.2309C1.40382 18.3655 1.57409 18.4589 1.75998 18.5001ZM5.69998 5.20011C8.00987 3.08667 11.0617 1.97232 14.19 2.10011C15.1953 2.09746 16.199 2.1811 17.19 2.35011C17.5 4.22011 18.1 10.0201 14.33 13.7901C12.0038 15.9174 8.92924 17.0357 5.77998 16.9001C4.79796 16.9008 3.81769 16.8171 2.84998 16.6501C2.52998 14.7701 1.92998 8.98011 5.69998 5.20011Z" fill="black"/>
<path d="M5.28998 12.7901L6.70998 14.2101L8.49998 12.4201L10.29 14.2101L11.71 12.7901L9.90998 11.0001L11.5 9.4101L13.29 11.2101L14.71 9.7901L12.91 8.0001L14.71 6.2101L13.29 4.7901L11.5 6.5901L9.70998 4.7901L8.28998 6.2101L10.09 8.0001L8.49998 9.5901L6.70998 7.7901L5.28998 9.2101L7.08998 11.0001L5.28998 12.7901Z" fill="black"/>
</svg>
