<svg width="20" height="21" viewBox="0 0 20 21" fill="none" xmlns="http://www.w3.org/2000/svg">
<path d="M2.92901 17.581C4.82401 19.476 7.33401 20.519 10 20.519C12.666 20.519 15.177 19.476 17.071 17.581C20.97 13.682 20.97 7.338 17.071 3.438C15.177 1.544 12.665 0.5 10 0.5C7.33501 0.5 4.82301 1.544 2.92901 3.438C-0.969989 7.337 -0.969989 13.682 2.92901 17.581ZM15.657 16.167C14.6091 17.2179 13.2885 17.9552 11.844 18.296C11.835 16.694 12.43 15.15 13.535 14.045C14.698 12.882 16.267 12.217 17.812 12.194C17.4935 13.699 16.7448 15.0792 15.657 16.167ZM17.982 10.202C15.858 10.181 13.698 11.055 12.121 12.631C10.589 14.163 9.79401 16.311 9.85801 18.512C7.78373 18.4804 5.80407 17.6388 4.34201 16.167C2.87813 14.7024 2.04177 12.7255 2.01001 10.655C2.08701 10.657 2.16401 10.669 2.24101 10.669C4.35601 10.669 6.40101 9.865 7.87801 8.389C9.45801 6.809 10.335 4.65 10.308 2.516C12.3229 2.58836 14.235 3.42375 15.657 4.853C17.0808 6.27763 17.9117 8.18906 17.982 10.202ZM4.34301 4.853C5.42982 3.76113 6.80984 3.00772 8.31601 2.684C8.29801 4.239 7.63101 5.808 6.46501 6.975C5.36101 8.078 3.82301 8.671 2.22701 8.666C2.5621 7.22221 3.29516 5.90125 4.34301 4.853Z" fill="black"/>
</svg>
