<svg width="19" height="18" viewBox="0 0 19 18" fill="none" xmlns="http://www.w3.org/2000/svg">
<path d="M14.604 8.54797C15.2131 7.51005 15.4761 6.30528 15.355 5.10797C15.176 3.32397 14.18 1.74697 12.552 0.667969L11.447 2.33397C12.566 3.07597 13.247 4.13297 13.365 5.30797C13.4194 5.85407 13.3514 6.40543 13.166 6.92195C12.9806 7.43847 12.6823 7.90718 12.293 8.29397L11.101 9.48597L12.719 9.96097C16.951 11.201 17 15.457 17 15.5H19C19 13.711 18.044 10.215 14.604 8.54797Z" fill="black"/>
<path d="M7.5 9.5C9.706 9.5 11.5 7.706 11.5 5.5C11.5 3.294 9.706 1.5 7.5 1.5C5.294 1.5 3.5 3.294 3.5 5.5C3.5 7.706 5.294 9.5 7.5 9.5ZM7.5 3.5C8.603 3.5 9.5 4.397 9.5 5.5C9.5 6.603 8.603 7.5 7.5 7.5C6.397 7.5 5.5 6.603 5.5 5.5C5.5 4.397 6.397 3.5 7.5 3.5ZM9 10.5H6C2.691 10.5 0 13.191 0 16.5V17.5H2V16.5C2 14.294 3.794 12.5 6 12.5H9C11.206 12.5 13 14.294 13 16.5V17.5H15V16.5C15 13.191 12.309 10.5 9 10.5Z" fill="black"/>
</svg>
