<svg width="42" height="30" viewBox="0 0 42 30" fill="none" xmlns="http://www.w3.org/2000/svg">
<path d="M8.49984 0.416016V29.5827H14.7498V17.0827H27.2498V29.5827H33.4998V0.416016H27.2498V12.916H14.7498V0.416016H8.49984ZM2.24984 21.2493C2.24984 21.8019 2.46933 22.3318 2.86003 22.7225C3.25073 23.1132 3.78064 23.3327 4.33317 23.3327H6.4165V6.66602H4.33317C3.78064 6.66602 3.25073 6.88551 2.86003 7.27621C2.46933 7.66691 2.24984 8.19681 2.24984 8.74935V12.916H0.166504V17.0827H2.24984V21.2493ZM39.7498 8.74935C39.7498 8.19681 39.5303 7.66691 39.1396 7.27621C38.7489 6.88551 38.219 6.66602 37.6665 6.66602H35.5832V23.3327H37.6665C38.219 23.3327 38.7489 23.1132 39.1396 22.7225C39.5303 22.3318 39.7498 21.8019 39.7498 21.2493V17.0827H41.8332V12.916H39.7498V8.74935Z" fill="black"/>
</svg>
