<svg width="42" height="42" viewBox="0 0 42 42" fill="none" xmlns="http://www.w3.org/2000/svg">
<path d="M35.7314 6.2693C33.8031 4.32567 31.5084 2.78389 28.9801 1.73323C26.4518 0.68258 23.7402 0.143928 21.0023 0.148466C18.2638 0.144181 15.5516 0.682934 13.0227 1.73356C10.4938 2.78418 8.19825 4.32582 6.26894 6.2693C-1.85397 14.3901 -1.85397 27.6089 6.26894 35.7318C8.19829 37.6758 10.4941 39.2178 13.0235 40.2684C15.5528 41.3191 18.2655 41.8575 21.0044 41.8526C23.7421 41.8574 26.4536 41.3191 28.9819 40.2688C31.5102 39.2185 33.805 37.6771 35.7335 35.7339C43.8564 27.6131 43.8564 14.3943 35.7314 6.2693ZM21.3773 4.33388H20.6294C20.7564 4.3318 20.8773 4.31513 21.0044 4.31513C21.1314 4.31513 21.2502 4.3318 21.3773 4.33388ZM34.0064 31.4172H29.3335L26.7127 36.6589C24.8844 37.3343 22.9513 37.682 21.0023 37.686C19.0496 37.6824 17.1129 37.334 15.2814 36.6568L12.6669 31.4381H8.01061C6.29277 29.3024 5.13105 26.7742 4.62936 24.0797L8.50019 18.9172L5.96686 13.8485C6.77521 12.1289 7.87394 10.5615 9.21478 9.21513C11.0914 7.33192 13.3916 5.92536 15.9231 5.11305L21.0002 8.50055L26.0794 5.11513C28.6101 5.92802 30.91 7.3337 32.7877 9.21513C34.1271 10.5599 35.225 12.1251 36.0335 13.8422L33.5002 18.9172L37.371 24.0797C36.8716 26.7656 35.7158 29.2862 34.0064 31.4172Z" fill="black"/>
<path d="M13.7085 18.9173L16.8335 27.2506H25.1668L28.2918 18.9173L21.0002 13.7089L13.7085 18.9173Z" fill="black"/>
</svg>
