<svg width="20" height="20" viewBox="0 0 20 20" fill="none" xmlns="http://www.w3.org/2000/svg">
<path d="M0.99997 11H1.99997V18C1.99997 19.103 2.89697 20 3.99997 20H16C17.103 20 18 19.103 18 18V11H19C19.1977 10.9999 19.391 10.9412 19.5554 10.8314C19.7198 10.7215 19.848 10.5653 19.9236 10.3826C19.9993 10.1999 20.0191 9.99888 19.9806 9.80493C19.942 9.61097 19.8468 9.43281 19.707 9.29296L10.707 0.292957C10.6142 0.200011 10.504 0.126273 10.3827 0.0759627C10.2613 0.0256519 10.1313 -0.000244141 9.99997 -0.000244141C9.86864 -0.000244141 9.73859 0.0256519 9.61728 0.0759627C9.49596 0.126273 9.38576 0.200011 9.29297 0.292957L0.29297 9.29296C0.153161 9.43281 0.0579541 9.61097 0.0193866 9.80493C-0.019181 9.99888 0.000622056 10.1999 0.0762921 10.3826C0.151962 10.5653 0.280102 10.7215 0.444511 10.8314C0.608921 10.9412 0.80222 10.9999 0.99997 11ZM7.99997 18V13H12V18H7.99997ZM9.99997 2.41396L16 8.41396L16.001 18H14V13C14 11.897 13.103 11 12 11H7.99997C6.89697 11 5.99997 11.897 5.99997 13V18H3.99997V8.41396L9.99997 2.41396Z" fill="black"/>
</svg>
